<svg width="23" height="26" viewBox="0 0 23 26" fill="none" xmlns="http://www.w3.org/2000/svg">
<path d="M19.971 9.91699L19.4343 17.967C19.2278 21.0633 19.1252 22.6115 18.116 23.5553C17.1068 24.5003 15.554 24.5003 12.4507 24.5003H11.5477C8.44434 24.5003 6.89151 24.5003 5.88234 23.5553C4.87318 22.6115 4.76934 21.0633 4.56401 17.967L4.02734 9.91699M9.08251 12.8337L9.66584 18.667M14.9158 12.8337L14.3325 18.667" stroke="#EC2347" stroke-width="2" stroke-linecap="round"/>
<path d="M21.1394 3.4466L1.60742 6.89062" stroke="#EC2347" stroke-width="2" stroke-linecap="round"/>
<path d="M5.13707 6.2686L5.26345 6.24632C5.72375 6.15297 6.14517 5.92289 6.47259 5.58616C6.80001 5.24942 7.01819 4.82172 7.09859 4.35898L7.11679 4.23375L7.16929 3.87975C7.2142 3.57685 7.23734 3.42587 7.27906 3.29294C7.36132 3.03249 7.50341 2.79491 7.69395 2.59921C7.88449 2.40351 8.11819 2.25513 8.37636 2.16595C8.50694 2.12041 8.65745 2.09387 8.95847 2.04079L12.7385 1.37428C13.0395 1.3212 13.19 1.29466 13.3283 1.29278C13.6014 1.2883 13.8718 1.3478 14.1177 1.46652C14.3637 1.58525 14.5785 1.75991 14.7449 1.97652C14.8295 2.08716 14.9029 2.22112 15.0487 2.4904L15.2191 2.80509C15.4501 3.26343 15.8257 3.63284 16.2878 3.85611C16.75 4.07939 17.2728 4.14406 17.7754 4.04012" stroke="#EC2347" stroke-width="2"/>
</svg>
