<?xml version="1.0" encoding="UTF-8" standalone="no"?>
<svg
   width="28"
   height="28"
   viewBox="0 0 28 28"
   fill="none"
   version="1.1"
   id="svg704"
   sodipodi:docname="bucket-red.svg"
   inkscape:version="1.2.2 (732a01da63, 2022-12-09)"
   xmlns:inkscape="http://www.inkscape.org/namespaces/inkscape"
   xmlns:sodipodi="http://sodipodi.sourceforge.net/DTD/sodipodi-0.dtd"
   xmlns="http://www.w3.org/2000/svg"
   xmlns:svg="http://www.w3.org/2000/svg">
  <defs
     id="defs708" />
  <sodipodi:namedview
     id="namedview706"
     pagecolor="#ffffff"
     bordercolor="#000000"
     borderopacity="0.25"
     inkscape:showpageshadow="2"
     inkscape:pageopacity="0.0"
     inkscape:pagecheckerboard="0"
     inkscape:deskcolor="#d1d1d1"
     showgrid="false"
     inkscape:zoom="29.071429"
     inkscape:cx="13.208845"
     inkscape:cy="14"
     inkscape:window-width="1920"
     inkscape:window-height="1017"
     inkscape:window-x="1912"
     inkscape:window-y="-8"
     inkscape:window-maximized="1"
     inkscape:current-layer="svg704" />
  <path
     d="M21.971 9.91675L21.4343 17.9667C21.2278 21.0631 21.1252 22.6112 20.116 23.5551C19.1068 24.5001 17.554 24.5001 14.4507 24.5001H13.5477C10.4443 24.5001 8.89151 24.5001 7.88234 23.5551C6.87318 22.6112 6.76934 21.0631 6.56401 17.9667L6.02734 9.91675M11.0825 12.8334L11.6658 18.6667M16.9158 12.8334L16.3325 18.6667"
     stroke="#C5C5C7"
     stroke-width="2"
     stroke-linecap="round"
     id="path698"
     style="fill:none;fill-opacity:1;stroke:#ec2347;stroke-opacity:1" />
  <path
     d="M23.8333 7H4"
     stroke="#C5C5C7"
     stroke-width="2"
     stroke-linecap="round"
     id="path700"
     inkscape:label="path700"
     style="fill:none;fill-opacity:1;stroke:#ec2347;stroke-opacity:1" />
  <path
     d="M7.58203 7H7.71036C8.17988 6.988 8.63486 6.83459 9.01578 6.55983C9.39669 6.28507 9.68583 5.90175 9.84536 5.46L9.88503 5.33983L9.9982 5.00033C10.095 4.70983 10.144 4.56517 10.2082 4.4415C10.3344 4.19929 10.5156 3.98999 10.7373 3.83035C10.9589 3.67071 11.2148 3.56517 11.4845 3.52217C11.621 3.5 11.7739 3.5 12.0795 3.5H15.9179C16.2235 3.5 16.3764 3.5 16.5129 3.52217C16.7826 3.56517 17.0385 3.67071 17.2601 3.83035C17.4818 3.98999 17.663 4.19929 17.7892 4.4415C17.8534 4.56517 17.9024 4.70983 17.9992 5.00033L18.1124 5.33983C18.2602 5.83132 18.566 6.26034 18.9823 6.56047C19.3987 6.8606 19.9023 7.01508 20.4154 7"
     stroke="#C5C5C7"
     stroke-width="2"
     id="path702"
     style="stroke:#ec2347;stroke-opacity:1" />
</svg>
