<svg width="28" height="28" viewBox="0 0 28 28" fill="none" xmlns="http://www.w3.org/2000/svg">
<path d="M28 14C28 21.732 21.732 28 14 28C6.26801 28 0 21.732 0 14C0 6.26801 6.26801 0 14 0C21.732 0 28 6.26801 28 14Z" fill="#007788"/>
<path d="M6.70711 15.182C6.31658 14.7914 6.31658 14.1583 6.70711 13.7677C7.09763 13.3772 7.7308 13.3772 8.12132 13.7677L11.6569 17.3033L10.2426 18.7175L6.70711 15.182Z" fill="white"/>
<path d="M10.2422 18.7175L20.1417 8.81803C20.5322 8.42751 21.1654 8.42751 21.5559 8.81803C21.9464 9.20856 21.9464 9.84172 21.5559 10.2322L12.3635 19.4246C11.973 19.8152 11.3398 19.8152 10.9493 19.4246L10.2422 18.7175Z" fill="white"/>
</svg>
