<svg width="24" height="24" viewBox="0 0 20 20" fill="none" xmlns="http://www.w3.org/2000/svg">
<path d="M19.9165 9.59735C17.8972 4.90899 14.0986 2 10 2C5.90143 2 2.10275 4.90899 0.0834558 9.59735C-0.0278186 9.85231 -0.0278186 10.1421 0.0834558 10.3971C2.10275 15.0854 5.90143 17.9944 10 17.9944C14.0986 17.9944 17.8972 15.0854 19.9165 10.3971C20.0278 10.1421 20.0278 9.85231 19.9165 9.59735ZM10 15.9951C6.8311 15.9951 3.83215 13.7059 2.10275 9.99721C3.83215 6.28851 6.8311 3.9993 10 3.9993C13.1689 3.9993 16.1679 6.28851 17.8972 9.99721C16.1679 13.7059 13.1689 15.9951 10 15.9951ZM10 5.99861C7.79163 5.99861 6.00139 7.78884 6.00139 9.99721C6.00139 12.2056 7.79163 13.9958 10 13.9958C12.2084 13.9958 13.9986 12.2056 13.9986 9.99721C13.9986 8.93672 13.5773 7.91966 12.8274 7.16977C12.0776 6.41989 11.0605 5.99861 10 5.99861ZM10 11.9965C8.89582 11.9965 8.0007 11.1014 8.0007 9.99721C8.0007 8.89303 8.89582 7.99791 10 7.99791C11.1042 7.99791 11.9993 8.89303 11.9993 9.99721C11.9993 11.1014 11.1042 11.9965 10 11.9965Z" fill="#107f8c"/>
</svg>
