<svg width="28" height="28" viewBox="0 0 28 28" fill="none" xmlns="http://www.w3.org/2000/svg">
<path d="M4.66699 14.0002C4.66699 14.3096 4.78991 14.6063 5.0087 14.8251C5.22749 15.0439 5.52424 15.1668 5.83366 15.1668H14.6887L12.0053 17.8385C11.896 17.947 11.8092 18.076 11.75 18.2182C11.6907 18.3603 11.6602 18.5128 11.6602 18.6668C11.6602 18.8208 11.6907 18.9733 11.75 19.1155C11.8092 19.2577 11.896 19.3867 12.0053 19.4952C12.1138 19.6045 12.2428 19.6913 12.385 19.7505C12.5272 19.8098 12.6796 19.8403 12.8337 19.8403C12.9877 19.8403 13.1402 19.8098 13.2823 19.7505C13.4245 19.6913 13.5535 19.6045 13.662 19.4952L18.3287 14.8285C18.4349 14.7175 18.5181 14.5867 18.5737 14.4435C18.6903 14.1595 18.6903 13.8409 18.5737 13.5568C18.5181 13.4136 18.4349 13.2828 18.3287 13.1718L13.662 8.50516C13.5532 8.39638 13.4241 8.3101 13.2819 8.25123C13.1398 8.19236 12.9875 8.16206 12.8337 8.16206C12.6798 8.16206 12.5275 8.19236 12.3854 8.25123C12.2432 8.3101 12.1141 8.39638 12.0053 8.50516C11.8965 8.61394 11.8103 8.74308 11.7514 8.88521C11.6925 9.02733 11.6622 9.17966 11.6622 9.3335C11.6622 9.48733 11.6925 9.63966 11.7514 9.78179C11.8103 9.92391 11.8965 10.0531 12.0053 10.1618L14.6887 12.8335H5.83366C5.52424 12.8335 5.22749 12.9564 5.0087 13.1752C4.78991 13.394 4.66699 13.6907 4.66699 14.0002ZM19.8337 2.3335H8.16699C7.23873 2.3335 6.3485 2.70225 5.69212 3.35862C5.03574 4.015 4.66699 4.90524 4.66699 5.8335V9.3335C4.66699 9.64292 4.78991 9.93966 5.0087 10.1585C5.22749 10.3772 5.52424 10.5002 5.83366 10.5002C6.14308 10.5002 6.43982 10.3772 6.65862 10.1585C6.87741 9.93966 7.00033 9.64292 7.00033 9.3335V5.8335C7.00033 5.52408 7.12324 5.22733 7.34203 5.00854C7.56083 4.78975 7.85757 4.66683 8.16699 4.66683H19.8337C20.1431 4.66683 20.4398 4.78975 20.6586 5.00854C20.8774 5.22733 21.0003 5.52408 21.0003 5.8335V22.1668C21.0003 22.4762 20.8774 22.773 20.6586 22.9918C20.4398 23.2106 20.1431 23.3335 19.8337 23.3335H8.16699C7.85757 23.3335 7.56083 23.2106 7.34203 22.9918C7.12324 22.773 7.00033 22.4762 7.00033 22.1668V18.6668C7.00033 18.3574 6.87741 18.0607 6.65862 17.8419C6.43982 17.6231 6.14308 17.5002 5.83366 17.5002C5.52424 17.5002 5.22749 17.6231 5.0087 17.8419C4.78991 18.0607 4.66699 18.3574 4.66699 18.6668V22.1668C4.66699 23.0951 5.03574 23.9853 5.69212 24.6417C6.3485 25.2981 7.23873 25.6668 8.16699 25.6668H19.8337C20.7619 25.6668 21.6522 25.2981 22.3085 24.6417C22.9649 23.9853 23.3337 23.0951 23.3337 22.1668V5.8335C23.3337 4.90524 22.9649 4.015 22.3085 3.35862C21.6522 2.70225 20.7619 2.3335 19.8337 2.3335Z" fill="#EC2347"/>
</svg>
