<svg xmlns="http://www.w3.org/2000/svg" width="70" height="70" viewBox="0 0 70 70" fill="none">
<path d="M68 35C68 42.4008 65.5123 49.5867 60.9365 55.4034C56.3607 61.22 49.9625 65.3298 42.7698 67.0722C35.5771 68.8147 28.0074 68.0889 21.2769 65.0112C14.5464 61.9336 9.04581 56.6829 5.6588 50.1027C2.27178 43.5224 1.19498 35.9947 2.6014 28.7288C4.00782 21.4629 7.81581 14.8806 13.4136 10.0395C19.0114 5.19843 26.074 2.37952 33.4668 2.03566C40.8595 1.6918 48.1533 3.84296 54.1763 8.14354" stroke="#DD2233" stroke-width="4" stroke-linecap="round"
><animateTransform attributeType="xml" attributeName="transform" type="rotate" from="360 35 35" to="0 35 35" dur="1.5s" additive="sum" repeatCount="indefinite" /></path>
<path d="M12 31.5276C12.7832 26.4286 15.2676 21.7394 19.054 18.2133C22.8404 14.6872 27.709 12.529 32.8776 12.0853C38.0463 11.6416 43.2149 12.9382 47.5531 15.7669C51.8913 18.5955 55.1472 22.792 56.7979 27.682C58.4485 32.5721 58.398 37.8719 56.6544 42.73C54.9109 47.588 51.5755 51.7224 47.1842 54.4688C42.7928 57.2152 37.6004 58.4142 32.4412 57.8732C27.282 57.3322 22.4554 55.0826 18.7369 51.4858" stroke="#007788" stroke-width="4" stroke-linecap="round"
><animateTransform attributeType="xml" attributeName="transform" type="rotate" from="0 35 35" to="360 35 35" dur="1.5s" additive="sum" repeatCount="indefinite" /></path>
</svg>